Coordinates
version=1
nRows=13
nColumns=36
inDegrees=yes

Units are S.I. units (second, meters, Newtons, ...)
If the header above contains a line with 'inDegrees', this indicates whether rotational values are in degrees (yes) or radians (no).

endheader
time	pelvis_tilt	pelvis_list	pelvis_rotation	pelvis_tx	pelvis_ty	pelvis_tz	hip_flexion_r	hip_adduction_r	hip_rotation_r	knee_angle_r	knee_angle_r_beta	ankle_angle_r	subtalar_angle_r	mtp_angle_r	hip_flexion_l	hip_adduction_l	hip_rotation_l	knee_angle_l	knee_angle_l_beta	ankle_angle_l	subtalar_angle_l	mtp_angle_l	lumbar_extension	lumbar_bending	lumbar_rotation	arm_flex_r	arm_add_r	arm_rot_r	elbow_flex_r	pro_sup_r	arm_flex_l	arm_add_l	arm_rot_l	elbow_flex_l	pro_sup_l
     28.25000000	    -33.46595310	     -1.68221451	     -3.63826022	     -0.00455759	      0.77223127	     -0.05601981	     79.60579944	     -1.28270957	     -2.96686499	     65.74018216	      1.14738263	     29.57772739	     -0.56307306	     -7.49999987	     83.63873901	    -14.91354169	     -4.56159927	     73.29753263	      1.27928328	     28.06660960	      6.15054565	     -7.49999987	    -16.32789257	      2.17407444	     11.11999063	     21.45537822	    -23.43755535	     16.07037272	    101.90848123	     94.80807562	     33.09476494	    -12.32567162	     30.48421689	     94.23082395	     90.87232733
     28.26666670	    -33.63284030	     -1.49066928	     -3.62870546	     -0.00499478	      0.76689376	     -0.05740926	     80.59798042	     -1.51405609	     -2.71166809	     66.94242916	      1.16836580	     30.25894212	     -0.19063454	     -7.49999987	     84.51709149	    -14.62436852	     -4.40933758	     74.22899512	      1.29554037	     28.53110682	      6.12812069	     -7.49999987	    -17.04614184	      2.16796035	     11.06245162	     22.19401973	    -23.37781047	     15.77010316	    102.03838616	     94.48707557	     33.01346934	    -12.18634077	     29.91948667	     93.46714967	     90.46379021
     28.28333330	    -33.59695876	     -1.35584128	     -3.59293287	     -0.00488043	      0.76624023	     -0.05657011	     81.01859546	     -1.65667283	     -2.45570392	     67.52785254	      1.17858336	     30.50610294	     -0.23020294	     -7.49999987	     84.82760347	    -14.31238783	     -4.25506283	     74.65239533	      1.30293009	     28.61037095	      5.95406546	     -7.49999987	    -17.66057714	      2.15324221	     11.00946905	     22.74772364	    -23.10623319	     15.34692972	    101.84614835	     94.09150640	     32.94974827	    -11.96864195	     29.32225506	     92.88759970	     90.11810010
     28.30000000	    -33.76393501	     -1.14023506	     -3.43133260	     -0.00582773	      0.76533286	     -0.05719145	     81.51596626	     -1.99680118	     -2.24640247	     67.96772858	      1.18626065	     30.93982547	      0.25457026	     -7.49999987	     85.15197362	    -13.91748068	     -4.25761686	     74.83923721	      1.30619110	     28.94572121	      6.04246301	     -7.49999987	    -18.26279409	      2.02863066	     10.82766845	     23.35441025	    -22.90900022	     15.35527709	    101.73605226	     93.22049508	     33.28269596	    -11.66379550	     28.96186406	     92.38767988	     89.23917336
     28.31666670	    -33.83021821	     -1.07448035	     -3.31776640	     -0.00550361	      0.75712093	     -0.05569284	     82.10530346	     -2.11118656	     -2.05697800	     68.79350821	      1.20067322	     31.48776090	      0.50136319	     -7.49999987	     85.64571829	    -13.76253508	     -4.19849278	     75.44820486	      1.31681959	     29.30469873	      6.17399357	     -7.49999987	    -18.46150587	      1.89656641	     10.82250899	     23.51460882	    -22.69080621	     15.32387500	    102.28102334	     91.98684461	     33.52698473	    -11.46293614	     29.12560850	     92.91724723	     88.35262908
     28.33333330	    -34.03559935	     -0.98821044	     -3.43185015	     -0.01627066	      0.75023832	     -0.06429329	     83.38324638	     -2.13515265	     -1.82168597	     70.00805406	      1.22187105	     31.96157333	      0.50999649	     -7.49999987	     86.80527729	    -13.67979431	     -3.98772885	     76.57158217	      1.33642622	     29.80587156	      6.21010174	     -7.49999987	    -18.84605415	      1.97381112	     11.22083636	     24.66101845	    -22.85790421	     15.09725968	    102.55327361	     92.50611433	     34.75244569	    -11.05238639	     28.98038534	     93.50554924	     88.81348805
     28.35000000	    -34.35183740	     -1.02230936	     -2.91752070	     -0.01734449	      0.74765222	     -0.05078925	     84.59645603	     -2.52606605	     -1.75019755	     71.40711177	      1.24628921	     32.62440476	      0.67547360	     -7.49999987	     88.07248806	    -13.28839462	     -3.73995968	     77.47555215	      1.35220347	     29.98270217	      6.04110366	     -7.49999987	    -19.17636078	      1.81801470	     11.31331712	     24.93404723	    -23.41624868	     14.83057622	    102.43980645	     92.92216674	     35.47877343	    -11.00548644	     29.18259677	     94.10946573	     89.26789100
     28.36666670	    -34.43819430	     -1.02625218	     -2.65632393	     -0.01739198	      0.74728777	     -0.05133696	     85.09871206	     -2.62549289	     -1.59599437	     71.82631501	      1.25360569	     32.79114605	      0.61461325	     -7.49999987	     88.54374595	    -13.03247356	     -3.54159209	     77.67310631	      1.35565145	     29.83944115	      5.77493328	     -7.49999987	    -19.60530757	      1.73645336	     11.39910024	     25.39864941	    -23.44210471	     14.71605886	    101.57854618	     91.32687642	     36.47557793	    -10.89992324	     29.40523501	     94.06881238	     88.07164782
     28.38333330	    -34.43718749	     -1.04848125	     -2.53387260	     -0.01653196	      0.74623005	     -0.05074591	     85.38670369	     -2.59144436	     -1.48191077	     72.10870574	      1.25853433	     32.98816774	      0.61595027	     -7.49999987	     88.84382365	    -12.92711707	     -3.36023610	     77.86616631	      1.35902098	     29.97612197	      5.78869470	     -7.49999987	    -19.72920284	      1.72810230	     11.56347954	     25.60356044	    -23.47766356	     14.58242759	    100.86618646	     90.86165894	     37.46600908	    -11.13446321	     29.68461405	     94.00909772	     87.77646341
     28.40000000	    -34.18782229	     -0.91705941	     -2.58831690	     -0.00579388	      0.74090069	     -0.05641088	     85.23805112	     -2.50482942	     -1.15644023	     72.37851103	      1.26324333	     33.21506620	      0.38802940	     -7.49999987	     88.52189670	    -12.79383014	     -3.35504764	     78.12484231	      1.36353573	     30.24040699	      5.50204776	     -7.49999987	    -20.11359105	      1.72174605	     11.44880755	     24.94152718	    -23.20284427	     14.29814463	    100.08681346	     90.82254373	     37.67843068	    -11.17706548	     29.61753391	     93.63873789	     87.78220303
     28.41666670	    -34.18520803	     -1.02538024	     -2.53264695	     -0.01825732	      0.73151246	     -0.04878905	     85.97376495	     -2.39297975	     -1.09696872	     73.48101358	      1.28248562	     33.70903649	      0.32907549	     -7.49999987	     89.34029967	    -12.91448394	     -3.09047824	     79.05363466	      1.37974621	     30.67312437	      5.60847565	     -7.49999987	    -20.21462390	      1.70834982	     11.41985093	     25.26905763	    -23.17526347	     14.38094168	    100.40672818	     91.21901920	     38.41527345	    -11.20807931	     29.70597065	     93.83560005	     88.13854922
     28.43333330	    -34.52790287	     -1.14134485	     -2.43167441	     -0.02005661	      0.71815734	     -0.04949877	     87.58533585	     -2.40377183	     -1.09997016	     75.23238022	      1.31305274	     34.45087997	      0.44355555	     -7.49999987	     90.97723734	    -12.91259459	     -2.65469402	     80.63321621	      1.40731511	     30.97410820	      5.92984963	     -7.49999987	    -19.39415022	      1.85231754	     11.11984066	     25.50940040	    -23.37159958	     15.36279712	    101.46497095	     90.16745657	     39.55531937	    -12.22834515	     30.86419812	     94.56310252	     87.26852096
     28.45000000	    -35.04193507	     -0.77492362	     -2.29329518	     -0.02941229	      0.71566937	     -0.05644561	     89.31236724	     -2.65855065	     -0.63334675	     76.53320420	      1.33575640	     34.69600467	      0.57173103	     -7.49999987	     92.37163550	    -12.61323936	     -2.72443989	     81.52027503	      1.42279721	     30.66507465	      5.66395293	     -7.49999987	    -18.82451949	      1.46034642	     10.74654452	     25.50195124	    -23.75457134	     15.49566557	    102.27744859	     90.75070702	     40.59647158	    -13.05474741	     31.82862488	     95.22942575	     87.92702403
